<svg id="Layer_1" data-name="Layer 1" xmlns="http://www.w3.org/2000/svg" viewBox="0 0 1041.3 742.25"><defs><style>.cls-1{fill:#1347ea;}.cls-2{fill:#333;}</style></defs><title>footerLogo</title><path class="cls-1" d="M764.25,314.73S733,328.26,602.06,265.58c-88.77-42.49-186.4-17.5-220.46,46.43,0,0,48.68-69.95,111.84-38.3s28.48,184.66-58.93,221.23c-35.95,15-12.06-43.07-12.06-43.07s-35.26,69.77,14.74,66.07c55.74-4.13,68.54-33.19,102.34-15.63,48.5,25.18,3.53,158.44,3.53,158.44S614.3,536.61,613.85,438.6c-.71-154.53,54-121.68,100-119.49C753.32,321,764.25,314.73,764.25,314.73Z" transform="translate(-22.7 -24.73)"/><circle class="cls-1" cx="585.42" cy="156.63" r="57.36"/><path class="cls-2" d="M1064,598.72l-2.58,50.58c-.84,0-85.73-4.1-192.17,8.72-96.81,11.65-231.85,40-325.56,109l-.45-.6-.23.32C362,633.52,28.63,648.87,25.28,649L22.7,598.44c3.61-.18,89.34-4.34,199.91,8.91,133,15.9,240.72,49.07,321,98.69,80.19-49.48,187.78-82.54,320.52-98.43C974.66,594.38,1060.39,598.54,1064,598.72Z" transform="translate(-22.7 -24.73)"/><path class="cls-2" d="M550.36,690.49S722.16,586,997.93,589.27l9.3-26.27S726,565.19,550.36,690.49Z" transform="translate(-22.7 -24.73)"/><path class="cls-2" d="M553.09,679.27S711.16,576.64,978.41,553.94l6.93-22.67S713.23,559,553.09,679.27Z" transform="translate(-22.7 -24.73)"/><path class="cls-2" d="M555.62,671.78s132.81-97.42,368.62-142.6l3.6-23.85S688.12,555.21,555.62,671.78Z" transform="translate(-22.7 -24.73)"/><path class="cls-2" d="M537.89,688.89S366.09,584.39,90.32,587.67L81,561.41S362.26,563.59,537.89,688.89Z" transform="translate(-22.7 -24.73)"/><path class="cls-2" d="M535.16,677.68S377.08,575,109.84,552.34l-6.93-22.67S375,557.42,535.16,677.68Z" transform="translate(-22.7 -24.73)"/><path class="cls-2" d="M532.63,670.18S399.82,572.76,164,527.59l-3.6-23.86S400.13,553.61,532.63,670.18Z" transform="translate(-22.7 -24.73)"/><path class="cls-2" d="M25.65,489,72.43,494l-.63,6L25,495.07Z" transform="translate(-22.7 -24.73)"/><path class="cls-2" d="M72.9,501.35l-49.24-5.18.89-8.49,49.24,5.18ZM26.37,494l44.33,4.67.37-3.58-44.32-4.67Z" transform="translate(-22.7 -24.73)"/><path class="cls-2" d="M80.51,443.4l-1.09,6L38.47,466.72,75,473.39l-1.09,6-46.27-8.45,1.09-6,41-17.34-36.63-6.68,1.09-6Z" transform="translate(-22.7 -24.73)"/><path class="cls-2" d="M74.94,480.8l-48.71-8.88,1.43-7.85,37.82-16L31.7,441.92l1.54-8.41,48.7,8.89-1.43,7.85-37.75,16,33.71,6.15ZM29.11,469.93l43.84,8,.65-3.54L34.19,467.2l44.13-18.71.75-4.1-43.85-8-.64,3.54,39.48,7.2-44.21,18.7Z" transform="translate(-22.7 -24.73)"/><path class="cls-2" d="M46.53,389.12l4.75,1.34-3.6,12.78L88.2,414.67l-1.65,5.84L46,409.08l-3.61,12.78-4.75-1.34Z" transform="translate(-22.7 -24.73)"/><path class="cls-2" d="M43.28,423.39l-7.13-2,9.53-33.78,7.13,2L49.2,402.38l40.52,11.44L87.4,422,46.88,410.6Zm-4.08-3.72,2.37.66,3.6-12.78L85.69,419l1-3.47L46.15,404.09l3.61-12.78-2.38-.67Z" transform="translate(-22.7 -24.73)"/><path class="cls-2" d="M58,371.3l15.06,5.62,6.25-16.75,4.38,1.63-6.25,16.75,15.37,5.74,7-18.63,4.62,1.73-9.07,24.32L51.25,375.26l9.07-24.32L65,352.67Z" transform="translate(-22.7 -24.73)"/><path class="cls-2" d="M96,393.29,49.66,376l9.94-26.64,6.94,2.59-7,18.63,12.75,4.76,6.25-16.75,6.69,2.5L79,377.83l13.06,4.87,7-18.63,6.94,2.6Zm-43.2-18.76,41.75,15.59,8.21-22-2.31-.86-6.95,18.63-17.69-6.61,6.25-16.75L80,361.76l-6.25,16.75L56.41,372l7-18.63-2.31-.87Z" transform="translate(-22.7 -24.73)"/><path class="cls-2" d="M85.38,305.4a19.79,19.79,0,0,1,13.25-1.85l-2.82,5.75a14.39,14.39,0,0,0-8.63,2,16.3,16.3,0,0,0-6.41,7.14A16.7,16.7,0,0,0,79,327.12a15.56,15.56,0,0,0,3.09,8.17,20.7,20.7,0,0,0,7.78,6.25,21.09,21.09,0,0,0,9.87,2.39,15.54,15.54,0,0,0,8.44-2.66,17.63,17.63,0,0,0,6-7.06,16.94,16.94,0,0,0,1.83-7.95,15.38,15.38,0,0,0-2.28-7.7,18.44,18.44,0,0,0-6.29-6.18L99.23,329l-4.08-2,10.42-21.2,5,2.47a23.36,23.36,0,0,1,7.57,7.59A20.76,20.76,0,0,1,121.23,326a22.77,22.77,0,0,1-2.49,11.12,23.44,23.44,0,0,1-8,9.44,21.16,21.16,0,0,1-11.18,3.54,28.1,28.1,0,0,1-22.34-11,21.35,21.35,0,0,1-4.06-11A23.16,23.16,0,0,1,75.65,316,22.8,22.8,0,0,1,85.38,305.4Z" transform="translate(-22.7 -24.73)"/><path class="cls-2" d="M98.77,351.3a27.78,27.78,0,0,1-12.23-3,27.37,27.37,0,0,1-10.34-8.49,22.52,22.52,0,0,1-4.29-11.65,24.39,24.39,0,0,1,2.63-12.71,24,24,0,0,1,10.27-11.12,21.08,21.08,0,0,1,14-2l1.6.29-3.91,8-.85-.07a13,13,0,0,0-7.9,1.81A15.08,15.08,0,0,0,81.88,319,15.49,15.49,0,0,0,80.22,327a14.42,14.42,0,0,0,2.85,7.53,19.55,19.55,0,0,0,7.33,5.87,19.92,19.92,0,0,0,9.28,2.26,14.39,14.39,0,0,0,7.79-2.44,16.69,16.69,0,0,0,5.55-6.59,15.77,15.77,0,0,0,1.69-7.38,14.14,14.14,0,0,0-2.1-7.08,16.65,16.65,0,0,0-4.74-5l-8.08,16.43-6.29-3.09L105,304.11l6.14,3a24.76,24.76,0,0,1,8.08,8.05,22.12,22.12,0,0,1,3.23,10.72,23.86,23.86,0,0,1-2.61,11.71,24.77,24.77,0,0,1-8.45,9.93,22.44,22.44,0,0,1-11.82,3.75Zm-4.25-46.91A18.11,18.11,0,0,0,86,306.5a21.62,21.62,0,0,0-9.2,10A22.06,22.06,0,0,0,74.37,328a20.26,20.26,0,0,0,3.83,10.4,26.85,26.85,0,0,0,21.3,10.46A19.88,19.88,0,0,0,110,345.48a22.26,22.26,0,0,0,7.6-9A21.55,21.55,0,0,0,120,326a19.69,19.69,0,0,0-2.87-9.54,22.18,22.18,0,0,0-7.18-7.18l-3.8-1.87-9.33,19,1.85.91,8.21-16.7,1.16.72a19.85,19.85,0,0,1,6.7,6.59,16.57,16.57,0,0,1,2.45,8.31,18.16,18.16,0,0,1-2,8.52,19,19,0,0,1-6.38,7.55,16.91,16.91,0,0,1-9.1,2.87,23.27,23.27,0,0,1-10.44-2.52A22.19,22.19,0,0,1,81.07,336a17,17,0,0,1-3.32-8.8,18,18,0,0,1,1.91-9.35,17.55,17.55,0,0,1,6.9-7.67,15.59,15.59,0,0,1,8.5-2.18l1.72-3.5A19.27,19.27,0,0,0,94.52,304.39Z" transform="translate(-22.7 -24.73)"/><path class="cls-2" d="M147.89,285.08l-22.81.14-3.52,5.59,16.27,10.24-3.24,5.14-39.8-25.06L103,268q4.27-6.78,9.65-8.12a13.41,13.41,0,0,1,10.74,2,13.19,13.19,0,0,1,6.12,7.64q1.26,4.57-1.25,10.17l23.26-.49Zm-30,3.39,4.73-7.51q5.5-8.76-2.17-13.59t-13.19,3.92l-4.73,7.51Z" transform="translate(-22.7 -24.73)"/><path class="cls-2" d="M135,307.9l-41.9-26.39L102,267.37c3-4.78,6.5-7.69,10.39-8.66a14.7,14.7,0,0,1,11.7,2.19,14.44,14.44,0,0,1,6.65,8.35,15.3,15.3,0,0,1-.6,9.23l23.69-.5-5.25,8.33-22.8.15-2.5,4,16.26,10.24ZM96.49,280.74l37.71,23.74,1.92-3L119.86,291.2,124.4,284l22.8-.15,2.08-3.3-22.91.49.79-1.78c1.55-3.45,1.94-6.59,1.19-9.34a11.86,11.86,0,0,0-5.59-6.92,12.11,12.11,0,0,0-9.78-1.88c-3.25.81-6.24,3.36-8.9,7.58Zm21.74,9.43-17.45-11,5.38-8.55c5.1-8.1,10.92-6.81,14.9-4.31,2.86,1.81,4.52,4.05,4.94,6.67s-.39,5.46-2.39,8.63Zm-14-11.76,13.27,8.35,4.07-6.46c1.67-2.64,2.35-5,2-6.92s-1.55-3.54-3.82-5c-4.53-2.85-8.18-1.73-11.49,3.53Z" transform="translate(-22.7 -24.73)"/><path class="cls-2" d="M166.42,241.44l-12.68,16.34,6.18,9.77-4,5.17L130.1,230.66l4.22-5.43,47.11,14.59-4,5.17Zm-4.81-1.54-24-7.75,13.49,21.35Z" transform="translate(-22.7 -24.73)"/><path class="cls-2" d="M155.8,274.89l-27.2-44.31,5.26-6.78,49.64,15.37-5.63,7.26-11-3.55-11.61,15,6.18,9.77Zm-24.2-44.15L156,270.55l2.38-3.07-6.18-9.78L166,240l11,3.56,2.38-3.07-44.59-13.82ZM151,255.65,134.7,229.92l29,9.35Zm-10.53-21.28,10.73,17,8.39-10.83Z" transform="translate(-22.7 -24.73)"/><path class="cls-2" d="M174,178.79l3.6,3.38-9.09,9.68,30.71,28.81-4.16,4.42-30.7-28.8L155.31,206l-3.6-3.37Z" transform="translate(-22.7 -24.73)"/><path class="cls-2" d="M195.16,226.83,164.46,198l-9.09,9.68-5.4-5.07L174,177l5.4,5.07-9.08,9.69L201,220.6Zm-30.82-32.3,30.71,28.81,2.46-2.63-30.71-28.8,9.09-9.69-1.8-1.68-20.63,22,1.8,1.69Z" transform="translate(-22.7 -24.73)"/><path class="cls-2" d="M192.42,168.26,203.2,180.2l13.27-12,3.13,3.46-13.27,12,11,12.18,14.76-13.33,3.31,3.67-19.27,17.39-31.52-34.91,19.26-17.39,3.31,3.66Z" transform="translate(-22.7 -24.73)"/><path class="cls-2" d="M216,205.33l-33.18-36.75L204,149.53l5,5.5-14.76,13.32,9.12,10.1,13.27-12,4.79,5.3-13.28,12,9.35,10.34,14.75-13.32,5,5.5Zm-29.69-36.57,29.87,33.08,17.43-15.74L232,184.27l-14.76,13.32-12.66-14,13.28-12L216.38,170l-13.27,12-12.43-13.77,14.76-13.32L203.78,153Z" transform="translate(-22.7 -24.73)"/><path class="cls-2" d="M267.62,147.38A19.66,19.66,0,0,1,265.74,159a28.6,28.6,0,0,1-9,10.31l-12,8.91-28-37.75,12-8.92a29.27,29.27,0,0,1,12.43-5.7,19.25,19.25,0,0,1,11.63,1.5,28.58,28.58,0,0,1,14.88,20ZM261.57,153q1.08-6.7-4.05-13.62t-11.86-7.85q-6.74-.94-14.17,4.59l-6.75,5,21.6,29.08,6.75-5Q260.48,159.71,261.57,153Z" transform="translate(-22.7 -24.73)"/><path class="cls-2" d="M244.48,180,215,140.21l13-9.65a30.57,30.57,0,0,1,13-5.93,20.61,20.61,0,0,1,12.36,1.6,29.84,29.84,0,0,1,15.58,21h0a20.94,20.94,0,0,1-2,12.34,30,30,0,0,1-9.38,10.76Zm-26.07-39.23L245,176.5l11-8.18a27.55,27.55,0,0,0,8.64-9.86,18.55,18.55,0,0,0,1.77-10.9h0a24.63,24.63,0,0,0-4.89-11.14,24.9,24.9,0,0,0-9.29-7.95,18.21,18.21,0,0,0-10.91-1.4,28.19,28.19,0,0,0-11.9,5.47Zm27.68,31.22L223,140.88l7.74-5.76c5.2-3.87,10.28-5.5,15.08-4.81s9.07,3.48,12.68,8.34,5.05,9.75,4.28,14.55h0c-.78,4.77-3.79,9.15-9,13Zm-19.62-30.56,20.13,27.1,5.76-4.27c4.63-3.45,7.32-7.29,8-11.41s-.62-8.38-3.82-12.68-6.92-6.79-11-7.37-8.6.89-13.27,4.35Z" transform="translate(-22.7 -24.73)"/><path class="cls-2" d="M309.29,129.29l14.61-8,2.29,4.15-19.93,11-22.7-41.2,5.32-2.93Z" transform="translate(-22.7 -24.73)"/><path class="cls-2" d="M305.77,138.05,281.88,94.68l7.48-4.12,20.42,37.05,14.61-8,3.47,6.32ZM285.24,95.66l21.51,39,17.76-9.79-1.1-2-14.6,8-20.42-37Z" transform="translate(-22.7 -24.73)"/><path class="cls-2" d="M324.21,79.61l6.66,14.64,16.28-7.41,1.93,4.25L332.81,98.5l6.8,14.94,18.09-8.24,2.05,4.49-23.62,10.76L316.64,77.63l23.62-10.75,2.05,4.49Z" transform="translate(-22.7 -24.73)"/><path class="cls-2" d="M335.51,122.08,315,77l25.87-11.78L343.94,72l-18.09,8.24,5.63,12.39,16.28-7.41,3,6.5-16.28,7.41,5.78,12.69,18.1-8.24,3.06,6.75ZM318.27,78.25l18.47,40.56,21.37-9.73-1-2.24L339,115.07l-7.82-17.18,16.28-7.41-.92-2-16.27,7.4L322.57,79l18.1-8.24-1-2.24Z" transform="translate(-22.7 -24.73)"/><path class="cls-2" d="M393.58,85.64l-19.53,6.8L373.9,104l-6.17,2.15L369,56.82l6.5-2.26,31.55,37.91-6.18,2.15Zm-3.19-3.9L374.46,62.13l-.33,25.26Z" transform="translate(-22.7 -24.73)"/><path class="cls-2" d="M366.45,107.91l1.34-52,8.11-2.81,33.24,39.93-8.68,3-7.29-9-17.9,6.23-.14,11.56Zm3.77-50.2L369,104.4l3.67-1.28.14-11.56L394,84.19l7.29,9L405,91.89,375.09,56Zm2.65,31.43.39-30.44,19.2,23.63Zm2.78-23.58-.26,20.09,12.93-4.5Z" transform="translate(-22.7 -24.73)"/><path class="cls-2" d="M441.48,83.94,425,68.14l-6.42,1.56,4.51,18.68-5.91,1.42-11-45.73,15.05-3.63q7.78-1.87,12.58.91a13.45,13.45,0,0,1,6.27,8.95,13.15,13.15,0,0,1-.94,9.74q-2.29,4.16-8,6.42l17,15.87Zm-23.9-18.52,8.63-2.09q10.05-2.43,7.92-11.25T422,45.69l-8.63,2.08Z" transform="translate(-22.7 -24.73)"/><path class="cls-2" d="M416.31,91.29,404.69,43.16l16.25-3.92c5.48-1.32,10-1,13.49,1A14.73,14.73,0,0,1,441.29,50a14.41,14.41,0,0,1-1.07,10.62,15.14,15.14,0,0,1-6.86,6.2L450.68,83l-9.57,2.31L424.67,69.51l-4.56,1.1,4.51,18.67ZM407.67,45l10.46,43.33,3.51-.85-4.52-18.67,8.28-2,16.45,15.8,3.79-.91L428.88,66l1.81-.72c3.51-1.39,6-3.37,7.37-5.87a11.81,11.81,0,0,0,.82-8.85,12.12,12.12,0,0,0-5.7-8.17c-2.9-1.69-6.82-2-11.66-.78Zm9,21.93-4.84-20,9.83-2.37c9.3-2.26,12.57,2.73,13.67,7.3s.47,10.5-8.83,12.74Zm-1.86-18.22,3.68,15.24,7.43-1.8c6-1.46,8.27-4.56,7-9.76s-4.66-6.93-10.69-5.48Z" transform="translate(-22.7 -24.73)"/><path class="cls-2" d="M495.63,75.16l-6,.83L460.35,42.51l5.07,36.81-6,.83L453,33.55l6-.83,29.27,33.55-5.08-36.88,6-.83Z" transform="translate(-22.7 -24.73)"/><path class="cls-2" d="M458.35,81.54l-6.76-49,7.9-1.09,27,30.93-4.68-34,8.46-1.16,6.76,49-7.9,1.1-27-30.88,4.68,33.95Zm-4-46.93,6.08,44.15,3.57-.5-5.47-39.68L490.1,74.67l4.13-.57L488.15,30l-3.57.49,5.48,39.76L458.51,34Z" transform="translate(-22.7 -24.73)"/><path class="cls-2" d="M513.42,27l2.86,47-6.06.37-2.86-47Z" transform="translate(-22.7 -24.73)"/><path class="cls-2" d="M509.06,75.61l-3-49.43,8.53-.52,3,49.43Zm-.39-47.11L511.38,73l3.59-.22-2.71-44.49Z" transform="translate(-22.7 -24.73)"/><path class="cls-2" d="M567.46,73.57l-6.07-.09L537.54,36,537,73.11,530.91,73l.71-47,6.07.09,23.85,37.6.57-37.22,6.07.09Z" transform="translate(-22.7 -24.73)"/><path class="cls-2" d="M568.68,74.83l-8-.12-22-34.61-.52,34.26-8.54-.13.76-49.5,8,.12,22,34.67.52-34.33,8.55.13Zm-6.6-2.58,4.17.07.68-44.57-3.6-.05-.61,40.13L537,27.3l-4.17-.06-.68,44.56,3.6,0,.61-40Z" transform="translate(-22.7 -24.73)"/><path class="cls-2" d="M621.62,35.78a19.75,19.75,0,0,1,6,11.93l-6.35-.81a14.34,14.34,0,0,0-4.66-7.52,16.32,16.32,0,0,0-8.83-3.76A16.68,16.68,0,0,0,599,36.75a15.66,15.66,0,0,0-6.74,5.56,20.68,20.68,0,0,0-3.38,9.39,20.83,20.83,0,0,0,.93,10.11,15.59,15.59,0,0,0,5.24,7.13,17.79,17.79,0,0,0,8.62,3.35,17,17,0,0,0,8.11-.84,15.47,15.47,0,0,0,6.55-4.65,18.66,18.66,0,0,0,3.81-7.95L603.8,56.5l.58-4.5,23.43,3-.71,5.56a23.53,23.53,0,0,1-4.73,9.62,20.87,20.87,0,0,1-8.59,6.16,22.56,22.56,0,0,1-11.33,1.24,23.35,23.35,0,0,1-11.53-4.53,21.11,21.11,0,0,1-7-9.44,25.91,25.91,0,0,1-1.3-12.71,26,26,0,0,1,4.46-12,21.23,21.23,0,0,1,9.12-7.41A23,23,0,0,1,608.47,30,22.65,22.65,0,0,1,621.62,35.78Z" transform="translate(-22.7 -24.73)"/><path class="cls-2" d="M605.8,79a28.19,28.19,0,0,1-3.51-.23A24.76,24.76,0,0,1,590.17,74a22.44,22.44,0,0,1-7.37-10,27.49,27.49,0,0,1-1.37-13.31,27.41,27.41,0,0,1,4.68-12.53,22.74,22.74,0,0,1,9.64-7.83,24.36,24.36,0,0,1,12.88-1.62,24,24,0,0,1,13.84,6.12,21.05,21.05,0,0,1,6.41,12.66l.23,1.61L620.32,48l-.21-.82a13.07,13.07,0,0,0-4.27-6.89,15.11,15.11,0,0,0-8.18-3.46,15.53,15.53,0,0,0-8.18,1,14.55,14.55,0,0,0-6.2,5.14,19.62,19.62,0,0,0-3.18,8.84,20,20,0,0,0,.86,9.51A14.36,14.36,0,0,0,595.8,68a16.63,16.63,0,0,0,8,3.12,15.84,15.84,0,0,0,7.54-.79,14.23,14.23,0,0,0,6-4.27,16.94,16.94,0,0,0,3.21-6.12l-18.17-2.32.89-7,25.88,3.31-.87,6.78a24.72,24.72,0,0,1-5,10.25,22.15,22.15,0,0,1-9.09,6.53A22.87,22.87,0,0,1,605.8,79ZM605,31a20.91,20.91,0,0,0-8.32,1.65,20.3,20.3,0,0,0-8.6,7,25,25,0,0,0-4.24,11.42,25,25,0,0,0,1.23,12.12,20,20,0,0,0,6.57,8.89,22.23,22.23,0,0,0,10.93,4.29,21.58,21.58,0,0,0,10.71-1.17,19.72,19.72,0,0,0,8.1-5.8,22.48,22.48,0,0,0,4.48-9.12l.53-4.2-21-2.69-.27,2,18.46,2.36-.3,1.33a19.82,19.82,0,0,1-4.07,8.47,16.63,16.63,0,0,1-7.06,5,18.25,18.25,0,0,1-8.7.92,19.08,19.08,0,0,1-9.21-3.6,16.89,16.89,0,0,1-5.65-7.68,22.24,22.24,0,0,1-1-10.7,22.08,22.08,0,0,1,3.6-9.94,16.94,16.94,0,0,1,7.26-6A17.89,17.89,0,0,1,608,34.4a17.55,17.55,0,0,1,9.48,4,15.65,15.65,0,0,1,4.82,7.34l3.87.5a18.4,18.4,0,0,0-5.38-9.61h0a21.6,21.6,0,0,0-12.46-5.45A24.38,24.38,0,0,0,605,31Z" transform="translate(-22.7 -24.73)"/><path class="cls-2" d="M727.16,59.21l-25.48,41.31-7.06-2.21,1.12-39.93L673.86,91.79l-7.06-2.21,2.62-48.48,6.43,2L672.48,84l22.59-34.8,6.43,2-1.29,41.34,20.58-35.29Z" transform="translate(-22.7 -24.73)"/><path class="cls-2" d="M702.23,102l-8.87-2.78,1-36.5-20,30.54-8.88-2.78,2.76-51,8.89,2.78-3,36.93,20.44-31.47,8.22,2.58L701.6,87.68l18.62-31.94L729,58.51Zm-6.35-4.58,5.25,1.64,24.14-39.13-3.91-1.23L698.82,97.34l1.42-45.28-4.64-1.45L670.84,88.73,674.53,44l-4-1.25-2.49,45.94,5.26,1.65L697.1,54.05Z" transform="translate(-22.7 -24.73)"/><path class="cls-2" d="M747.37,68.29l-18.25,43.36-5.6-2.36,18.25-43.35Z" transform="translate(-22.7 -24.73)"/><path class="cls-2" d="M729.78,113.27,721.9,110l19.22-45.63L749,67.63Zm-4.64-4.64,3.32,1.4L745.75,69l-3.32-1.4Z" transform="translate(-22.7 -24.73)"/><path class="cls-2" d="M789.58,88.37l-2.2,4.42L775.5,86.86l-18.8,37.67-5.43-2.71,18.8-37.67-11.88-5.93,2.2-4.42Z" transform="translate(-22.7 -24.73)"/><path class="cls-2" d="M757.25,126.19l-7.64-3.82,18.8-37.67-11.88-5.93,3.31-6.63,31.4,15.68-3.31,6.63-11.88-5.93Zm-4.32-4.92,3.22,1.6L775,85.2l11.88,5.93,1.1-2.21-27-13.46-1.1,2.21,11.88,5.93Z" transform="translate(-22.7 -24.73)"/><path class="cls-2" d="M833.26,114.69l-24.9,39.91-5.2-3.25,11.51-18.46L794.4,120.25,782.89,138.7l-5.15-3.21,24.9-39.91,5.15,3.21L797,116.06l20.26,12.64,10.78-17.26Z" transform="translate(-22.7 -24.73)"/><path class="cls-2" d="M808.76,156.3l-7.31-4.56L813,133.29,794.8,122l-11.51,18.46L776,135.89l26.2-42,7.25,4.52-10.77,17.26L816.89,127l10.77-17.26,7.31,4.55Zm-3.9-5.35,3.11,1.94,23.59-37.81-3.11-1.94-10.77,17.27-22.36-14,10.77-17.26L803,97.28l-23.59,37.81L782.5,137,794,118.55l22.36,14Z" transform="translate(-22.7 -24.73)"/><path class="cls-2" d="M903.23,172.06l-30.57,34.68-4.56-4,24.4-27.68L857,193l-4-3.58L866.19,152l-24.31,27.58-4.56-4,30.58-34.68,5.45,4.8L860,185.7l37.79-18.45Z" transform="translate(-22.7 -24.73)"/><path class="cls-2" d="M872.77,208.49l-6.41-5.65,21-23.79-30.48,15.41-5.3-4.68,11.35-32.15L842,181.35l-6.41-5.65,32.21-36.54,7,6.17-12.7,38L898,165.78l7,6.17Zm-2.92-5.87,2.7,2.38,28.94-32.84-3.91-3.44-39.7,19.38,14-42L868,142.65l-28.94,32.83,2.7,2.38,27.7-31.43-15,42.59,2.8,2.48,40.45-20.45Z" transform="translate(-22.7 -24.73)"/><path class="cls-2" d="M937.6,211.85a21.77,21.77,0,0,1-1,11.85A27.25,27.25,0,0,1,918,240.18a21.86,21.86,0,0,1-11.88-.5,22.81,22.81,0,0,1-10.1-6.79A23.29,23.29,0,0,1,890.46,222a21.72,21.72,0,0,1,.92-11.9A27.31,27.31,0,0,1,910,193.6a21.67,21.67,0,0,1,11.93.55A23.18,23.18,0,0,1,932.1,201,22.83,22.83,0,0,1,937.6,211.85ZM920.41,199.7a15.48,15.48,0,0,0-8.78-.26A23,23,0,0,0,897,212.37a15.43,15.43,0,0,0-.85,8.76,17.06,17.06,0,0,0,4.09,8,16.8,16.8,0,0,0,7.42,5,15.77,15.77,0,0,0,8.81.23,22.9,22.9,0,0,0,14.59-12.9,15.51,15.51,0,0,0,.83-8.74,17.94,17.94,0,0,0-11.49-13Z" transform="translate(-22.7 -24.73)"/><path class="cls-2" d="M912.86,242a22.89,22.89,0,0,1-7.14-1.14,24.2,24.2,0,0,1-10.64-7.15,24.57,24.57,0,0,1-5.83-11.48,23.09,23.09,0,0,1,1-12.57,28.47,28.47,0,0,1,19.54-17.26,22.82,22.82,0,0,1,12.59.58A24.5,24.5,0,0,1,933,200.17a24.14,24.14,0,0,1,5.79,11.44h0a23.1,23.1,0,0,1-1,12.51,28.54,28.54,0,0,1-19.53,17.26A23.94,23.94,0,0,1,912.86,242Zm2.22-47.74a21.67,21.67,0,0,0-4.77.54,26.13,26.13,0,0,0-17.77,15.7,20.68,20.68,0,0,0-.87,11.24,22,22,0,0,0,5.26,10.33,21.74,21.74,0,0,0,9.56,6.44,20.62,20.62,0,0,0,11.22.46,26,26,0,0,0,17.76-15.69,20.76,20.76,0,0,0,.92-11.2,23,23,0,0,0-14.83-16.76A20.23,20.23,0,0,0,915.08,194.26Zm-2.66,41.83a16.57,16.57,0,0,1-5.13-.81,17.94,17.94,0,0,1-8-5.33,18.26,18.26,0,0,1-4.38-8.58,16.68,16.68,0,0,1,.91-9.45,24.33,24.33,0,0,1,15.48-13.68,16.78,16.78,0,0,1,9.46.29h0a19.17,19.17,0,0,1,12.31,13.93,16.85,16.85,0,0,1-.88,9.43,22.31,22.31,0,0,1-6.22,8.57,22,22,0,0,1-9.23,5.08A17.84,17.84,0,0,1,912.42,236.09Zm3.23-35.92a15.54,15.54,0,0,0-3.72.47,21.86,21.86,0,0,0-13.77,12.17,14.4,14.4,0,0,0-.79,8.08,15.81,15.81,0,0,0,3.81,7.43,15.52,15.52,0,0,0,6.87,4.61,14.55,14.55,0,0,0,8.13.21,19.56,19.56,0,0,0,8.19-4.53,19.76,19.76,0,0,0,5.55-7.61,14.38,14.38,0,0,0,.77-8.06A16.7,16.7,0,0,0,920,200.87h0A13.74,13.74,0,0,0,915.65,200.17Z" transform="translate(-22.7 -24.73)"/><path class="cls-2" d="M959.28,235.12,934.56,270l41.34-11.28,3.8,5.41-48.43,12.91-4.41-6.28,28.59-41.13Z" transform="translate(-22.7 -24.73)"/><path class="cls-2" d="M930.76,278.48l-5.4-7.68,30.08-43.3,5.35,7.62-23.23,32.81,38.85-10.6,5.32,7.56Zm-2.39-7.69,3.42,4.86,45.88-12.23-2.28-3.25-43.83,12,26.21-37-2.32-3.29Z" transform="translate(-22.7 -24.73)"/><path class="cls-2" d="M986.13,284.71l-13.94,8,8.91,15.5-4.05,2.33-8.91-15.5-14.23,8.18,9.91,17.24-4.28,2.46-12.94-22.5L987.38,277l12.94,22.5L996,301.94Z" transform="translate(-22.7 -24.73)"/><path class="cls-2" d="M959.08,324.61,944.91,300l42.93-24.68L1002,299.94l-6.43,3.69-9.91-17.24-11.8,6.78,8.92,15.51-6.2,3.56-8.91-15.5-12.09,6.95,9.92,17.23Zm-10.79-23.73L960,321.24l2.14-1.23-9.91-17.24,16.37-9.41,8.91,15.5,1.91-1.09-8.91-15.51L986.58,283l9.91,17.24,2.14-1.23-11.7-20.36Z" transform="translate(-22.7 -24.73)"/><path class="cls-2" d="M1026.82,357.78l-42.27,18.75L982.09,371l33.73-15-39.71,1.48-2.19-4.94,27.6-28.45L967.91,339l-2.46-5.55,42.27-18.75,2.95,6.65-28.84,30.75,42-1Z" transform="translate(-22.7 -24.73)"/><path class="cls-2" d="M983.92,378.16l-3.46-7.81,29-12.86-34.13,1.27-2.87-6.46,23.75-24.47-28.91,12.82-3.47-7.81,44.53-19.75,3.78,8.53-27.39,29.19,39.93-.93,3.78,8.53Zm-.2-6.56,1.46,3.3,40-17.74-2.11-4.77-44.17,1,30.3-32.3-2.12-4.77-40,17.74,1.46,3.29,38.31-17-31.46,32.42,1.51,3.41,45.29-1.69Z" transform="translate(-22.7 -24.73)"/><path class="cls-2" d="M1030.89,382.63l-15.3,4.94,5.49,17-4.44,1.43-5.49-17-15.63,5,6.11,18.92-4.7,1.51-8-24.7,44.77-14.44,8,24.7-4.7,1.52Z" transform="translate(-22.7 -24.73)"/><path class="cls-2" d="M996.13,416,987.41,389l47.12-15.2,8.72,27-7,2.27-6.1-18.92-12.95,4.18,5.49,17-6.8,2.2-5.49-17-13.27,4.28,6.11,18.93Zm-5.61-25.46,7.21,22.35,2.34-.76L994,393.25l18-5.8,5.49,17,2.1-.68-5.49-17,17.65-5.69L1037.8,400l2.34-.76-7.21-22.35Z" transform="translate(-22.7 -24.73)"/><path class="cls-2" d="M1008.22,462l-1.31-5.93,31-31.86-36.3,8-1.3-5.93,45.93-10.14,1.31,5.92-31.09,31.88,36.35-8,1.31,5.93Z" transform="translate(-22.7 -24.73)"/><path class="cls-2" d="M1007.28,463.43l-1.72-7.78,28.61-29.38-33.46,7.39-1.85-8.34,48.35-10.68,1.72,7.79-28.67,29.39,33.52-7.4,1.85,8.34Zm1-7,.9,4.08,43.52-9.61-.78-3.52L1012.72,456l33.51-34.35-.9-4.07-43.52,9.61.77,3.51,39.12-8.63Z" transform="translate(-22.7 -24.73)"/><path class="cls-2" d="M1060.53,498.9l-4.9.6L1054,486.32l-41.8,5.11-.73-6,41.79-5.1-1.61-13.18,4.9-.6Z" transform="translate(-22.7 -24.73)"/><path class="cls-2" d="M1054.55,500.88l-1.61-13.18-41.79,5.11-1-8.49,41.79-5.1L1050.29,466l7.36-.9L1061.9,500Zm.54-15.93,1.61,13.18,2.45-.3-3.66-29.94-2.45.3,1.61,13.18-41.79,5.11.44,3.57Z" transform="translate(-22.7 -24.73)"/></svg>