<svg id="Layer_1" data-name="Layer 1" xmlns="http://www.w3.org/2000/svg" viewBox="0 0 1046 646.88"><defs><style>.cls-1{fill:blue;}.cls-2{fill:#1a1a1a;}</style></defs><title>logo</title><path class="cls-1" d="M764.25,215.73S733,229.26,602.06,166.58c-88.77-42.49-186.4-17.5-220.46,46.43,0,0,48.68-69.95,111.84-38.3s28.48,184.66-58.93,221.23c-35.95,15-12.06-43.07-12.06-43.07s-35.26,69.77,14.74,66.07c55.74-4.13,68.54-33.19,102.34-15.63,48.5,25.18,3.53,158.44,3.53,158.44S614.3,437.61,613.85,339.6c-.71-154.53,54-121.68,100-119.49C753.32,222,764.25,215.73,764.25,215.73Z" transform="translate(-19 -20.4)"/><circle class="cls-1" cx="591.43" cy="59.66" r="59.66"/><path class="cls-2" d="M1065,498.25l-2.59,50.81c-.85,0-86.12-4.11-193,8.76-97.24,11.71-232.89,40.2-327,109.45l-.45-.6-.23.33C359.8,533.21,25,548.63,21.59,548.79L19,498c3.62-.19,89.74-4.37,200.81,8.94,133.56,16,241.81,49.3,322.41,99.14,80.55-49.7,188.63-82.92,322-98.88C975.26,493.89,1061.38,498.07,1065,498.25Z" transform="translate(-19 -20.4)"/><path class="cls-2" d="M549,590.44s172.58-105,449.59-101.68l9.34-26.39S725.47,464.57,549,590.44Z" transform="translate(-19 -20.4)"/><path class="cls-2" d="M551.78,579.17S710.57,476.07,979,453.27l7-22.77S712.64,458.37,551.78,579.17Z" transform="translate(-19 -20.4)"/><path class="cls-2" d="M554.32,571.64S687.73,473.78,924.61,428.4l3.62-24S687.42,454.55,554.32,571.64Z" transform="translate(-19 -20.4)"/><path class="cls-2" d="M536.52,588.83s-172.59-105-449.6-101.68l-9.34-26.38S360.09,463,536.52,588.83Z" transform="translate(-19 -20.4)"/><path class="cls-2" d="M533.77,577.57S375,474.47,106.53,451.67l-7-22.78S372.91,456.77,533.77,577.57Z" transform="translate(-19 -20.4)"/><path class="cls-2" d="M531.23,570S397.82,472.18,160.94,426.8l-3.61-24S398.13,452.94,531.23,570Z" transform="translate(-19 -20.4)"/></svg>