<?xml version="1.0" encoding="utf-8"?>
<!-- Generator: Adobe Illustrator 23.0.1, SVG Export Plug-In . SVG Version: 6.00 Build 0)  -->
<svg version="1.1" id="Layer_1" xmlns="http://www.w3.org/2000/svg" xmlns:xlink="http://www.w3.org/1999/xlink" x="0px" y="0px"
	 viewBox="0 0 1046 646.9" style="enable-background:new 0 0 1046 646.9;" xml:space="preserve">
<style type="text/css">
	.st0{fill:#0000FF;}
	.st1{fill:#1A1A1A;}
</style>
<title>logo</title>
<path class="st0" d="M745.3,195.3c0,0-31.3,13.5-162.2-49.1c-88.8-42.5-186.4-17.5-220.5,46.4c0,0,48.7-70,111.8-38.3
	s28.5,184.7-58.9,221.2c-36,15-12.1-43.1-12.1-43.1s-35.3,69.8,14.7,66.1c55.7-4.1,68.5-33.2,102.3-15.6
	c48.5,25.2,3.5,158.4,3.5,158.4s71.2-124.1,70.8-222.1c-0.7-154.5,54-121.7,100-119.5C734.3,201.6,745.3,195.3,745.3,195.3z"/>
<circle class="st0" cx="591.4" cy="59.7" r="59.7"/>
<path class="st1" d="M1046,477.9l-2.6,50.8c-0.8,0-86.1-4.1-193,8.8c-97.2,11.7-232.9,40.2-327,109.5l-0.5-0.6l-0.2,0.3
	C340.8,512.8,6,528.2,2.6,528.4L0,477.6c3.6-0.2,89.7-4.4,200.8,8.9c133.6,16,241.8,49.3,322.4,99.1c80.5-49.7,188.6-82.9,322-98.9
	C956.3,473.5,1042.4,477.7,1046,477.9z"/>
<path class="st1" d="M530,570c0,0,172.6-105,449.6-101.7l9.3-26.4C988.9,442,706.5,444.2,530,570z"/>
<path class="st1" d="M532.8,558.8c0,0,158.8-103.1,427.2-125.9l7-22.8C967,410.1,693.6,438,532.8,558.8z"/>
<path class="st1" d="M535.3,551.2c0,0,133.4-97.9,370.3-143.2l3.6-24C909.2,384,668.4,434.1,535.3,551.2z"/>
<path class="st1" d="M517.5,568.4c0,0-172.6-105-449.6-101.7l-9.3-26.4C58.6,440.4,341.1,442.6,517.5,568.4z"/>
<path class="st1" d="M514.8,557.2c0,0-158.8-103.1-427.2-125.9l-7-22.8C80.5,408.5,353.9,436.4,514.8,557.2z"/>
<path class="st1" d="M512.2,549.6c0,0-133.4-97.8-370.3-143.2l-3.6-24C138.3,382.4,379.1,432.5,512.2,549.6z"/>
</svg>
