<svg id="Layer_1" data-name="Layer 1" xmlns="http://www.w3.org/2000/svg" xmlns:xlink="http://www.w3.org/1999/xlink" viewBox="0 0 174.45 174.45"><defs><style>.cls-1{filter:url(#Rectangle_20);}.cls-2{opacity:0.07;isolation:isolate;}</style><filter id="Rectangle_20" width="178" height="178" name="Rectangle_20"><feOffset dx="5" dy="3"/><feGaussianBlur result="blur" stdDeviation="13"/><feFlood flood-opacity="0.81"/><feComposite operator="in" in="blur"/><feComposite in="SourceGraphic"/></filter></defs><title>mail</title><g class="cls-1"><rect id="Rectangle_20-2" data-name="Rectangle 20-2" class="cls-2" width="174.45" height="174.45" rx="57.57"/></g><g id="Group_45" data-name="Group 45"><g id="email"><g id="Group_42" data-name="Group 42"><path id="Path_205" data-name="Path 205" d="M123.79,59.48H54.21a7.15,7.15,0,0,0-7.42,6.81v45.42a7.15,7.15,0,0,0,7.42,6.81h69.58a7.15,7.15,0,0,0,7.42-6.81V66.29A7.15,7.15,0,0,0,123.79,59.48Zm-1,4.54L89.15,94.88,55.26,64Zm-71,46.76V67.21L75.56,88.9Zm3.5,3.21L79.07,92.1l8.35,7.6a2.64,2.64,0,0,0,3.49,0l8.15-7.48L122.75,114Zm71-3.21L102.55,89l23.71-21.77Z" transform="translate(-1.78 -1.78)"/></g></g></g></svg>