<?xml version="1.0" encoding="utf-8"?>
<!-- Generator: Adobe Illustrator 23.0.1, SVG Export Plug-In . SVG Version: 6.00 Build 0)  -->
<svg version="1.1" id="Layer_1" xmlns="http://www.w3.org/2000/svg" xmlns:xlink="http://www.w3.org/1999/xlink" x="0px" y="0px"
	 viewBox="0 0 174.4 174.4" style="enable-background:new 0 0 174.4 174.4;" xml:space="preserve">
<style type="text/css">
	.st0{opacity:6.000000e-02;enable-background:new    ;}
</style>
<title>mail</title>
<g>
	<path id="Rectangle_20-2" class="st0" d="M57.6,0h59.3c31.8,0,57.6,25.8,57.6,57.6v59.3c0,31.8-25.8,57.6-57.6,57.6H57.6
		C25.8,174.4,0,148.7,0,116.9V57.6C0,25.8,25.8,0,57.6,0z"/>
</g>
<g id="Group_45">
	<g id="email">
		<g id="Group_42">
			<path id="Path_205" d="M122,57.7H52.4c-3.9-0.2-7.2,2.9-7.4,6.8v45.4c0.2,3.9,3.5,7,7.4,6.8H122c3.9,0.2,7.2-2.9,7.4-6.8V64.5
				C129.2,60.6,125.9,57.5,122,57.7z M121,62.2L87.4,93.1L53.5,62.2L121,62.2z M50,109V65.4l23.8,21.7L50,109z M53.5,112.2
				l23.8-21.9l8.3,7.6c1,0.9,2.5,0.9,3.5,0l8.2-7.5l23.7,21.8L53.5,112.2z M124.5,109l-23.7-21.8l23.7-21.8L124.5,109z"/>
		</g>
	</g>
</g>
</svg>
