<?xml version="1.0" encoding="utf-8"?>
<!-- Generator: Adobe Illustrator 23.0.1, SVG Export Plug-In . SVG Version: 6.00 Build 0)  -->
<svg version="1.1" id="Layer_1" xmlns="http://www.w3.org/2000/svg" xmlns:xlink="http://www.w3.org/1999/xlink" x="0px" y="0px"
	 viewBox="0 0 174.4 174.4" style="enable-background:new 0 0 174.4 174.4;" xml:space="preserve">
<style type="text/css">
	.st0{opacity:7.000000e-02;enable-background:new    ;}
</style>
<title>phone</title>
<g>
	<path id="Rectangle_20-2" class="st0" d="M57.6,0h59.3c31.8,0,57.6,25.8,57.6,57.6v59.3c0,31.8-25.8,57.6-57.6,57.6H57.6
		C25.8,174.4,0,148.7,0,116.9V57.6C0,25.8,25.8,0,57.6,0z"/>
</g>
<g>
	<g>
		<path d="M90.9,128.8h-9.7c-2.5,0-4.4-2-4.4-4.4V93.1c0-0.2-0.2-0.4-0.4-0.4h-7.3c-2.5,0-4.4-2-4.4-4.4v-9.2c0-2.5,2-4.4,4.4-4.4
			h7.3c0.2,0,0.4-0.2,0.4-0.4v-7.9c0-12.7,7.7-20.6,20.1-20.6l8.4,0c2.4,0,4.4,2,4.4,4.4V60c0,1.5-1.2,2.8-2.8,2.8l-6.7,0
			c-4.5,0-5,1.6-5,4.9v6.5c0,0.2,0.2,0.4,0.4,0.4h9.1c2.5,0,4.4,2,4.4,4.4l0,9.2c0,2.5-2,4.4-4.4,4.4h-9.1c-0.2,0-0.4,0.2-0.4,0.4
			v31.2C95.4,126.8,93.4,128.8,90.9,128.8z M69.1,78.6c-0.2,0-0.4,0.2-0.4,0.4v9.2c0,0.2,0.2,0.4,0.4,0.4h7.3c2.5,0,4.4,2,4.4,4.4
			v31.2c0,0.2,0.2,0.4,0.4,0.4h9.7c0.2,0,0.4-0.2,0.4-0.4V93.1c0-2.5,2-4.4,4.4-4.4h9.1c0.2,0,0.4-0.2,0.4-0.4l0-9.2
			c0-0.2-0.2-0.4-0.4-0.4h-9.1c-2.5,0-4.4-2-4.4-4.4v-6.5c0-3.8,0.9-8.9,9-8.9l4.4,0c0.6,0,1-0.5,1-1v-7.7c0-0.2-0.2-0.4-0.4-0.4
			l-8.4,0c-10.1,0-16.1,6.2-16.1,16.6v7.9c0,2.5-2,4.4-4.4,4.4H69.1z"/>
	</g>
</g>
</svg>
