<svg id="Layer_1" data-name="Layer 1" xmlns="http://www.w3.org/2000/svg" viewBox="0 0 119 119"><defs><style>.cls-1{fill:#fff;}</style></defs><title>toTop</title><circle id="Ellipse_90-2" data-name="Ellipse 90-2" cx="59.5" cy="59.5" r="59.5"/><g id="Group_55" data-name="Group 55"><g id="Path_170" data-name="Path 170"><path class="cls-1" d="M128.06,101.14l-3,2.66L110.19,87.09v51.28h-4V87.49L93.05,103.72l-3.11-2.51,16.6-20.5.1-.13a1.91,1.91,0,0,1,1.25-.71,1.53,1.53,0,0,1,.3,0h.24l.17,0a.83.83,0,0,1,.21.06A.52.52,0,0,1,109,80a1.92,1.92,0,0,1,.44.25,2.09,2.09,0,0,1,.22.2l.06.06Z" transform="translate(-49.5 -49.5)"/></g><g id="Path_171" data-name="Path 171"><path class="cls-1" d="M109,79.89a.52.52,0,0,0-.16-.06h0Z" transform="translate(-49.5 -49.5)"/></g></g></svg>