<?xml version="1.0" encoding="utf-8"?>
<!-- Generator: Adobe Illustrator 16.0.4, SVG Export Plug-In . SVG Version: 6.00 Build 0)  -->
<!DOCTYPE svg PUBLIC "-//W3C//DTD SVG 1.1//EN" "http://www.w3.org/Graphics/SVG/1.1/DTD/svg11.dtd">
<svg version="1.1" id="Layer_1" xmlns="http://www.w3.org/2000/svg" xmlns:xlink="http://www.w3.org/1999/xlink" x="0px" y="0px"
	 width="53.812px" height="23.689px" viewBox="0 0 53.812 23.689" enable-background="new 0 0 53.812 23.689" xml:space="preserve">
<path d="M48.152,3.47c-3.492,0-6.324,2.361-6.324,5.273v11.389h2.143V8.851c0-1.926,1.871-3.485,4.182-3.485L48.152,3.47
	L48.152,3.47z"/>
<path d="M11.699,3.446c-0.592,0-1.072,0.188-1.072,0.421v10.885c0,1.924-1.873,3.485-4.184,3.485c-2.309,0-4.182-1.562-4.182-3.485
	c0-0.002,0-0.002,0-0.002V3.884c0.002-0.008,0.002-0.012,0.002-0.018c0-0.232-0.479-0.421-1.072-0.421
	c-0.59,0-1.07,0.188-1.07,0.421H0.119V14.86c0,2.912,2.832,5.271,6.326,5.271c3.492,0,6.324-2.357,6.324-5.271V3.866
	C12.769,3.634,12.289,3.446,11.699,3.446"/>
<path d="M18.824,20.132V8.851c0-1.926,1.873-3.485,4.182-3.485c2.311,0,4.186,1.561,4.186,3.485v0.002v11.279h2.141V8.743
	c0-2.912-2.832-5.273-6.326-5.273c-3.492,0-6.324,2.361-6.324,5.273v11.389H18.824z"/>
<path d="M36.703,3.897c0-0.237-0.48-0.432-1.074-0.432c-0.592,0-1.072,0.193-1.072,0.432c0,0.002,0,0.002,0,0.002v16.23h2.146V3.897
	z"/>
<path d="M53.132,3.897c0-0.237-0.479-0.432-1.07-0.432c-0.594,0-1.074,0.193-1.074,0.432c0,0.002,0,0.002,0,0.002v16.23h2.145
	L53.132,3.897L53.132,3.897z"/>
</svg>
