<?xml version="1.0" encoding="utf-8"?>
<!-- Generator: Adobe Illustrator 16.0.4, SVG Export Plug-In . SVG Version: 6.00 Build 0)  -->
<!DOCTYPE svg PUBLIC "-//W3C//DTD SVG 1.1//EN" "http://www.w3.org/Graphics/SVG/1.1/DTD/svg11.dtd">
<svg version="1.1" id="Layer_1" xmlns="http://www.w3.org/2000/svg" xmlns:xlink="http://www.w3.org/1999/xlink" x="0px" y="0px"
	 width="23.103px" height="23.103px" viewBox="69.57 0.262 23.103 23.103" enable-background="new 69.57 0.262 23.103 23.103"
	 xml:space="preserve">
<g>
	<g>
		<path d="M81.125,20.093c1.555,0,3.006-0.445,4.25-1.207h-8.504C78.114,19.647,79.567,20.093,81.125,20.093z"/>
		<path d="M75.311,17.665c0.276,0.278,0.581,0.53,0.896,0.77h9.832c0.43-0.324,0.825-0.688,1.185-1.088h-12.2
			C75.119,17.454,75.208,17.563,75.311,17.665z"/>
		<g>
			<path d="M77.716,8.22c-0.803,0-1.457,0.664-1.457,1.477c0,0.813,0.654,1.478,1.457,1.478s1.459-0.664,1.459-1.478
				C79.175,8.884,78.519,8.22,77.716,8.22z"/>
			<path d="M84.529,8.22c-0.802,0-1.458,0.664-1.458,1.477c0,0.813,0.655,1.478,1.458,1.478c0.805,0,1.458-0.664,1.458-1.478
				C85.987,8.884,85.333,8.22,84.529,8.22z"/>
			<path d="M86.934,5.976c-1.489-1.5-3.547-2.428-5.812-2.428c-4.531,0-8.228,3.717-8.228,8.272c0,1.912,0.657,3.673,1.747,5.074
				h12.959c1.09-1.403,1.747-3.162,1.747-5.074C89.349,9.544,88.423,7.474,86.934,5.976z M84.529,12.437h-1.76l3.348,3.267h-4.994
				H76.13l3.347-3.267h-1.761c-1.491,0-2.707-1.229-2.707-2.74c0-1.512,1.216-2.741,2.707-2.741h2.109
				c0.309,0,0.561,0.057,0.561,0.299v3.758c0,0.064,0.017,0.123,0.048,0.18c0.032,0.058,0.069,0.107,0.114,0.148l0.576,0.572
				l0.578-0.572c0.043-0.041,0.082-0.092,0.112-0.148c0.032-0.057,0.047-0.114,0.047-0.18V7.253c0-0.242,0.252-0.299,0.56-0.299
				h2.108c1.492,0,2.708,1.229,2.708,2.741C87.237,11.206,86.021,12.437,84.529,12.437z"/>
		</g>
	</g>
	<g>
		<path d="M70.712,14.411c0.229-0.052,0.324-0.191,0.283-0.39c-0.041-0.188-0.184-0.278-0.396-0.231l-0.763,0.164l-0.041-0.195
			l0.75-0.162c0.313-0.068,0.543,0.084,0.611,0.404c0.065,0.309-0.078,0.535-0.391,0.602l-0.755,0.164l-0.042-0.195L70.712,14.411z"
			/>
		<path d="M69.983,12.991l0.97-0.07l0.014,0.188l-1.26,0.092l-0.015-0.207l0.948-0.724l-0.994,0.074l-0.014-0.189l1.258-0.09
			l0.015,0.205L69.983,12.991z"/>
		<path d="M69.639,11.603l0.006-0.199l1.261,0.037L70.9,11.642L69.639,11.603z"/>
		<path d="M69.808,9.753l1.188,0.676l-0.029,0.215l-1.317,0.354l0.026-0.22l1.093-0.27L69.78,9.97L69.808,9.753z"/>
		<path d="M70.251,8.615l-0.146,0.577l0.378,0.097l0.141-0.56l0.151,0.039l-0.142,0.56l0.386,0.098l0.151-0.598l0.149,0.039
			l-0.2,0.791l-1.217-0.312l0.194-0.771L70.251,8.615z"/>
		<path d="M71.429,8.546l-1.172-0.455l0.152-0.398c0.106-0.274,0.301-0.395,0.516-0.311c0.135,0.053,0.23,0.217,0.228,0.389
			l0.611-0.098l-0.078,0.201l-0.569,0.088l-0.082,0.217l0.467,0.182L71.429,8.546z M70.892,8.124l0.113-0.299
			c0.011-0.111-0.049-0.207-0.143-0.244c-0.136-0.054-0.252,0.008-0.314,0.172L70.47,7.96L70.892,8.124z"/>
		<path d="M71.697,7.313c0.082-0.067,0.174-0.166,0.235-0.283c0.079-0.149,0.065-0.274-0.03-0.325
			c-0.089-0.047-0.173-0.009-0.326,0.137L71.49,6.923c-0.13,0.123-0.283,0.178-0.445,0.092c-0.199-0.104-0.211-0.361-0.104-0.568
			c0.061-0.114,0.141-0.213,0.234-0.288l0.113,0.108c-0.062,0.058-0.151,0.158-0.205,0.258c-0.069,0.134-0.061,0.259,0.039,0.312
			c0.092,0.049,0.168,0.02,0.311-0.113l0.09-0.086c0.165-0.154,0.312-0.191,0.462-0.113c0.193,0.103,0.229,0.318,0.093,0.582
			c-0.08,0.154-0.188,0.261-0.272,0.326L71.697,7.313z"/>
		<path d="M71.397,5.702l0.106-0.168l1.062,0.676l-0.106,0.17L71.397,5.702z"/>
		<path d="M71.707,5.214l0.592-0.783l0.123,0.094l-0.234,0.312l0.876,0.668l-0.121,0.16l-0.876-0.67l-0.234,0.312L71.707,5.214z"/>
		<path d="M73.688,4.292l-0.384,0.406l0.146,0.323l-0.146,0.154l-0.544-1.262l0.123-0.133l1.279,0.489l-0.146,0.154L73.688,4.292z
			 M73.235,4.544l0.298-0.312l-0.55-0.229L73.235,4.544z"/>
		<path d="M74.212,3.946c0.101-0.032,0.223-0.086,0.326-0.172c0.129-0.106,0.166-0.227,0.096-0.311
			c-0.063-0.078-0.156-0.074-0.352,0l-0.111,0.041c-0.166,0.063-0.328,0.057-0.445-0.086c-0.143-0.176-0.055-0.416,0.124-0.564
			c0.099-0.082,0.209-0.143,0.328-0.178l0.062,0.148c-0.08,0.024-0.201,0.084-0.287,0.157c-0.117,0.097-0.154,0.213-0.084,0.3
			c0.066,0.079,0.148,0.081,0.33,0.016l0.116-0.045c0.211-0.078,0.36-0.056,0.468,0.076c0.139,0.17,0.092,0.381-0.137,0.569
			c-0.133,0.109-0.273,0.168-0.376,0.195L74.212,3.946z"/>
		<path d="M75.557,2.933c0.104-0.014,0.231-0.047,0.349-0.115c0.146-0.084,0.201-0.194,0.146-0.289
			c-0.051-0.088-0.143-0.1-0.348-0.059l-0.115,0.023c-0.174,0.034-0.332,0-0.424-0.16c-0.112-0.197,0.014-0.42,0.213-0.537
			c0.111-0.062,0.23-0.104,0.353-0.117l0.037,0.152c-0.082,0.014-0.211,0.053-0.31,0.108c-0.129,0.074-0.187,0.187-0.131,0.281
			c0.053,0.09,0.131,0.107,0.322,0.07l0.121-0.023c0.221-0.043,0.365,0.004,0.449,0.152c0.107,0.188,0.027,0.391-0.229,0.539
			c-0.15,0.086-0.298,0.121-0.402,0.129L75.557,2.933z"/>
		<path d="M76.039,1.458l0.895-0.396l0.062,0.144L76.64,1.362l0.445,1.013l-0.184,0.082l-0.445-1.015L76.102,1.6L76.039,1.458z"/>
		<path d="M77.724,1.593c0.066,0.227,0.215,0.311,0.408,0.252c0.185-0.055,0.263-0.207,0.201-0.416l-0.226-0.752L78.3,0.618
			l0.221,0.741c0.091,0.312-0.041,0.554-0.354,0.646c-0.304,0.092-0.541-0.035-0.633-0.346l-0.222-0.746l0.19-0.06L77.724,1.593z"/>
		<path d="M79.028,1.745L78.83,0.493l0.426-0.068c0.383-0.062,0.67,0.131,0.73,0.521c0.062,0.39-0.148,0.669-0.531,0.73
			L79.028,1.745z M79.406,1.526c0.28-0.047,0.428-0.219,0.377-0.532c-0.051-0.314-0.242-0.455-0.514-0.412L79.05,0.616l0.15,0.941
			L79.406,1.526z"/>
		<path d="M80.36,0.3l0.199-0.012l0.071,1.264l-0.197,0.01L80.36,0.3z"/>
		<path d="M81.003,0.89c0.02-0.379,0.287-0.646,0.674-0.627c0.386,0.02,0.613,0.305,0.595,0.688
			c-0.021,0.381-0.287,0.646-0.674,0.627C81.21,1.559,80.985,1.274,81.003,0.89z M82.061,0.952c0.017-0.318-0.165-0.519-0.405-0.529
			c-0.222-0.012-0.426,0.146-0.441,0.465c-0.016,0.32,0.164,0.519,0.406,0.529C81.839,1.429,82.044,1.272,82.061,0.952z"/>
		<path d="M82.567,1.638l0.226-1.244l0.42,0.076c0.289,0.053,0.439,0.223,0.398,0.453c-0.025,0.141-0.169,0.266-0.338,0.297
			l0.212,0.586L83.27,1.765L83.08,1.22l-0.228-0.043l-0.09,0.496L82.567,1.638z M82.878,1.026l0.312,0.058
			c0.111-0.013,0.195-0.088,0.212-0.187c0.026-0.145-0.055-0.248-0.228-0.278L82.96,0.577L82.878,1.026z"/>
		<path d="M84.074,1.46c-0.072,0.225,0.002,0.377,0.193,0.438c0.182,0.06,0.332-0.021,0.398-0.227l0.237-0.748l0.188,0.061
			L84.857,1.72c-0.098,0.307-0.343,0.434-0.652,0.332c-0.299-0.098-0.424-0.334-0.324-0.643l0.236-0.738l0.188,0.061L84.074,1.46z"
			/>
		<path d="M85.628,1.192l0.244,0.121L85.818,2.29l0.743-0.631l0.243,0.12l-0.559,1.132l-0.17-0.084l0.465-0.938L85.8,2.529
			l-0.16-0.079l0.061-0.979l-0.463,0.938l-0.169-0.084L85.628,1.192z"/>
		<path d="M88.376,3.077l-0.453-0.353l-0.239,0.312l0.421,0.328l-0.096,0.122l-0.42-0.327l-0.34,0.438l-0.158-0.121l0.771-0.998
			l0.61,0.474L88.376,3.077z"/>
		<path d="M88.517,4.714l-0.561-0.537l0.869-0.916L88.971,3.4L88.208,4.2L88.625,4.6L88.517,4.714z"/>
		<path d="M89.167,4.69c-0.182,0.15-0.201,0.322-0.069,0.479c0.123,0.147,0.292,0.16,0.459,0.02l0.601-0.504l0.129,0.154
			l-0.592,0.496c-0.248,0.207-0.521,0.182-0.73-0.07c-0.205-0.244-0.184-0.512,0.064-0.721l0.596-0.502l0.127,0.153L89.167,4.69z"/>
		<path d="M90.617,5.3l0.141,0.234l-0.563,0.797l0.962-0.138l0.141,0.234l-1.073,0.654L90.126,6.92l0.889-0.541L90.05,6.522
			l-0.092-0.153l0.571-0.793l-0.889,0.541l-0.097-0.16L90.617,5.3z"/>
		<path d="M91.535,6.95l0.084,0.18l-1.146,0.527L90.39,7.477L91.535,6.95z"/>
		<path d="M91.632,7.925l-0.924,0.311l-0.059-0.18l1.197-0.402l0.064,0.195l-0.738,0.938l0.945-0.318l0.06,0.178l-1.196,0.402
			l-0.064-0.195L91.632,7.925z"/>
		<path d="M92.311,10.009l-0.116-0.584l-0.384,0.076l0.112,0.563l-0.151,0.031L91.66,9.532L91.269,9.61l0.121,0.605l-0.154,0.029
			l-0.16-0.802l1.232-0.248l0.156,0.783L92.311,10.009z"/>
		<path d="M92.262,10.7l-0.964,0.065l-0.012-0.186l1.25-0.09l0.014,0.202l-0.941,0.72l0.988-0.07l0.013,0.188l-1.25,0.089
			l-0.015-0.205L92.262,10.7z"/>
		<path d="M91.566,12.024c-0.046,0.095-0.089,0.222-0.096,0.355c-0.012,0.166,0.05,0.274,0.16,0.281
			c0.101,0.006,0.16-0.064,0.238-0.259l0.045-0.108c0.066-0.166,0.184-0.281,0.366-0.271c0.226,0.015,0.341,0.242,0.327,0.474
			c-0.008,0.129-0.041,0.252-0.096,0.36l-0.148-0.053c0.034-0.078,0.073-0.207,0.081-0.318c0.009-0.149-0.051-0.26-0.161-0.266
			c-0.104-0.008-0.162,0.053-0.234,0.232L92,12.567c-0.086,0.209-0.205,0.304-0.373,0.293c-0.217-0.014-0.338-0.192-0.32-0.487
			c0.01-0.172,0.062-0.316,0.113-0.408L91.566,12.024z"/>
		<path d="M92.496,13.374l-0.029,0.194l-1.24-0.182l0.027-0.197L92.496,13.374z"/>
		<path d="M91.369,13.847c-0.062,0.084-0.125,0.201-0.156,0.332c-0.039,0.162,0.002,0.281,0.109,0.305
			c0.098,0.023,0.168-0.034,0.279-0.211l0.062-0.102c0.096-0.15,0.229-0.242,0.41-0.199c0.217,0.051,0.291,0.297,0.237,0.523
			c-0.03,0.123-0.083,0.237-0.156,0.338l-0.136-0.08c0.046-0.068,0.107-0.188,0.134-0.297c0.035-0.148-0.005-0.267-0.112-0.291
			c-0.101-0.023-0.166,0.022-0.271,0.188l-0.065,0.104c-0.121,0.19-0.254,0.262-0.418,0.223c-0.211-0.051-0.3-0.248-0.231-0.535
			c0.04-0.168,0.116-0.299,0.182-0.381L91.369,13.847z"/>
	</g>
	<g>
		<path d="M71.416,16.202c0.053,0.116-0.002,0.268-0.121,0.319c-0.137,0.062-0.287,0.004-0.346-0.131
			c-0.055-0.121,0.002-0.268,0.123-0.322C71.205,16.009,71.354,16.065,71.416,16.202z"/>
		<path d="M71.718,17.817c0.021,0.104,0.064,0.229,0.142,0.341c0.095,0.141,0.209,0.188,0.3,0.125
			c0.084-0.058,0.088-0.15,0.031-0.353l-0.031-0.115c-0.048-0.174-0.025-0.336,0.127-0.44c0.186-0.127,0.416-0.019,0.547,0.176
			c0.072,0.104,0.121,0.223,0.146,0.344l-0.149,0.049c-0.021-0.082-0.067-0.209-0.131-0.301c-0.085-0.125-0.199-0.176-0.291-0.11
			c-0.086,0.059-0.096,0.141-0.045,0.327l0.032,0.121c0.06,0.22,0.022,0.365-0.116,0.463c-0.179,0.123-0.386,0.058-0.553-0.188
			c-0.098-0.144-0.145-0.287-0.161-0.396L71.718,17.817z"/>
		<path d="M73.984,19.022l-1.277,0.449l-0.143-0.16l0.602-1.221l0.144,0.162l-0.515,0.996l1.047-0.392L73.984,19.022z"/>
		<path d="M74.71,19.854l-0.451-0.393l-0.258,0.299l0.436,0.379l-0.104,0.119l-0.434-0.38l-0.262,0.305l0.465,0.406L74,20.708
			l-0.615-0.539l0.828-0.959l0.601,0.524L74.71,19.854z"/>
		<path d="M74.824,20.7c-0.132,0.196-0.103,0.366,0.066,0.479c0.16,0.107,0.326,0.072,0.447-0.111l0.435-0.653l0.166,0.11
			l-0.429,0.646c-0.178,0.27-0.448,0.322-0.719,0.141c-0.265-0.178-0.318-0.44-0.14-0.711l0.431-0.647l0.166,0.11L74.824,20.7z"/>
		<path d="M76.81,20.96c0.098,0.047,0.197,0.133,0.27,0.225l-0.117,0.094c-0.058-0.057-0.133-0.127-0.23-0.174
			c-0.225-0.11-0.471-0.049-0.609,0.236c-0.141,0.285-0.052,0.533,0.221,0.668c0.076,0.037,0.154,0.059,0.267,0.072l-0.01,0.149
			c-0.103,0.002-0.241-0.032-0.349-0.084c-0.396-0.196-0.492-0.545-0.322-0.887C76.096,20.919,76.442,20.776,76.81,20.96z
			 M76.804,20.327c0.051,0.082,0.111,0.213,0.146,0.311c0.098-0.033,0.237-0.063,0.334-0.074l0.012,0.172
			c-0.174,0.007-0.291,0.023-0.428,0.066c-0.049-0.135-0.104-0.238-0.207-0.381L76.804,20.327z"/>
		<path d="M77.434,21.255l0.187,0.07l-0.449,1.186l-0.187-0.072L77.434,21.255z"/>
		<path d="M78.427,22.913l-0.742-0.22l0.354-1.213l0.189,0.056L77.919,22.6l0.55,0.162L78.427,22.913z"/>
		<path d="M79.062,21.753l0.195,0.039l-0.25,1.237l-0.194-0.038L79.062,21.753z"/>
		<path d="M79.554,22.909c0.092,0.053,0.216,0.102,0.35,0.116c0.167,0.019,0.278-0.039,0.29-0.146
			c0.011-0.103-0.056-0.164-0.245-0.254l-0.109-0.051c-0.16-0.078-0.269-0.199-0.248-0.386c0.025-0.227,0.26-0.33,0.49-0.305
			c0.125,0.014,0.246,0.055,0.354,0.115l-0.061,0.146c-0.076-0.039-0.201-0.086-0.313-0.098c-0.149-0.019-0.263,0.039-0.272,0.147
			c-0.013,0.104,0.043,0.164,0.219,0.25l0.111,0.054c0.205,0.098,0.293,0.223,0.272,0.391c-0.022,0.217-0.208,0.332-0.503,0.299
			c-0.172-0.02-0.311-0.078-0.401-0.135L79.554,22.909z M79.869,21.292c0.076,0.061,0.18,0.162,0.244,0.242
			c0.081-0.064,0.202-0.142,0.29-0.185l0.07,0.158c-0.163,0.062-0.267,0.123-0.382,0.211c-0.094-0.113-0.18-0.191-0.326-0.291
			L79.869,21.292z"/>
		<path d="M80.686,21.97l0.981-0.002v0.158l-0.392,0.002l0.002,1.108l-0.2,0.003l-0.002-1.111h-0.391L80.686,21.97L80.686,21.97z"/>
		<path d="M82.773,22.013l-0.591,0.066l0.044,0.393l0.57-0.065l0.018,0.155l-0.57,0.066l0.045,0.397l0.61-0.069l0.019,0.155
			l-0.81,0.093l-0.144-1.259l0.789-0.092L82.773,22.013z"/>
		<path d="M84.089,22.339c0.07,0.225,0.218,0.307,0.41,0.246c0.184-0.06,0.258-0.209,0.194-0.416l-0.233-0.748l0.19-0.062
			l0.229,0.736c0.095,0.309-0.033,0.551-0.344,0.648c-0.3,0.096-0.537-0.027-0.633-0.336l-0.23-0.74l0.189-0.062L84.089,22.339z"/>
		<path d="M86.181,22.063l-0.596-1.108l0.373-0.205c0.26-0.142,0.482-0.104,0.592,0.102c0.068,0.127,0.035,0.314-0.079,0.443
			L87,21.618l-0.19,0.104l-0.488-0.307l-0.204,0.11l0.237,0.441L86.181,22.063z M86.044,21.392l0.281-0.151
			c0.078-0.078,0.096-0.189,0.047-0.279c-0.069-0.129-0.195-0.158-0.35-0.074l-0.193,0.105L86.044,21.392z"/>
		<path d="M86.666,20.325l0.166-0.113l0.697,1.055l-0.165,0.111L86.666,20.325z"/>
		<path d="M87.539,19.683l0.596,0.773c0.125,0.158,0.103,0.315-0.088,0.465c-0.062,0.049-0.152,0.082-0.219,0.084l-0.039-0.141
			c0.055-0.015,0.111-0.035,0.168-0.08c0.072-0.058,0.084-0.125,0.03-0.195l-0.606-0.783L87.539,19.683z"/>
		<path d="M88.529,18.983l-0.432,0.412l0.271,0.285l0.416-0.397l0.106,0.112l-0.415,0.4l0.275,0.289l0.445-0.428l0.108,0.114
			l-0.589,0.566l-0.872-0.918l0.573-0.553L88.529,18.983z"/>
		<path d="M89.025,18.122c0.068-0.084,0.174-0.164,0.279-0.213l0.064,0.137c-0.068,0.043-0.154,0.102-0.222,0.186
			c-0.157,0.195-0.155,0.451,0.09,0.654c0.246,0.201,0.509,0.172,0.701-0.066c0.056-0.065,0.093-0.139,0.132-0.243l0.143,0.043
			c-0.021,0.102-0.086,0.229-0.162,0.321c-0.28,0.349-0.641,0.359-0.937,0.115C88.822,18.815,88.764,18.444,89.025,18.122z"/>
		<path d="M89.451,17.591l0.111-0.166l1.042,0.707l-0.11,0.166L89.451,17.591z"/>
		<path d="M90.804,16.347c0.054-0.117,0.201-0.172,0.318-0.117c0.135,0.064,0.188,0.217,0.125,0.351
			c-0.055,0.116-0.201,0.172-0.32,0.112C90.794,16.632,90.742,16.481,90.804,16.347z"/>
	</g>
</g>
</svg>
